#!OML:ASF F:\VICON\USERDATA\INSTALL\Justin_Nancy\Justin_Nancy.ASF
:FULLY-SPECIFIED
:DEGREES
246
root 1.23909 15.1419 -16.1011 45.3168 -0.506822 0.438504
lowerback 33.897 0.582717 1.11599
upperback 3.50712 1.6252 3.25952
thorax -13.5766 0.718225 2.25809
lowerneck -25.4268 -4.35132 -8.79859
upperneck -5.9366 -3.47704 5.75791
head 2.26396 -1.34919 2.90293
rclavicle -1.35174e-014 -3.67752e-014
rhumerus -60.0399 -5.74257 -72.1262
rradius 72.9825
rwrist -14.8799
rhand -22.1791 21.366
rfingers 7.12502
rthumb 4.23578 -8.57166
lclavicle -1.35174e-014 -3.67752e-014
lhumerus -55.0112 -3.13691 86.8503
lradius 62.665
lwrist 32.8478
lhand -25.2384 22.5748
lfingers 7.12502
lthumb 1.28135 52.5507
rfemur -87.3246 -2.59376 21.7279
rtibia 74.4911
rfoot -23.8781 -10.582
rtoes -9.14739
lfemur -86.441 -1.68222 -19.3841
ltibia 72.1795
lfoot -26.9026 5.32975
ltoes -3.76875
247
root 1.23204 15.0897 -16.0176 44.9363 -0.521265 0.712246
lowerback 34.6515 0.622904 0.858775
upperback 3.52508 1.60402 3.28003
thorax -13.8686 0.720245 2.42512
lowerneck -25.8552 -4.28299 -8.74965
upperneck -6.0909 -3.35122 5.62358
head 2.25656 -1.2846 2.86335
rclavicle -6.36111e-015 -3.06128e-014
rhumerus -58.6475 -6.44072 -72.0515
rradius 71.9887
rwrist -14.8708
rhand -22.1 21.2512
rfingers 7.12502
rthumb 4.31219 -8.68487
lclavicle -6.36111e-015 -3.06128e-014
lhumerus -53.7635 -2.78146 86.8864
lradius 62.4214
lwrist 33.1774
lhand -24.8122 22.2239
lfingers 7.12502
lthumb 1.69298 52.1969
rfemur -87.3005 -2.7964 21.5194
rtibia 75.8181
rfoot -24.2772 -10.6468
rtoes -9.62922
lfemur -86.1005 -1.67596 -19.8177
ltibia 73.1358
lfoot -27.5727 5.652
ltoes -4.86395
248
root 1.23435 14.9766 -15.9534 45.2755 -0.840226 0.78368
lowerback 34.554 0.748238 0.512193
upperback 3.44018 1.61971 3.18994
thorax -13.9358 0.744389 2.50802
lowerneck -26.2372 -4.13707 -8.55381
upperneck -6.33942 -3.16904 5.50759
head 2.20949 -1.19347 2.81306
rclavicle 0 2.38542e-015
rhumerus -56.9276 -7.08417 -72.1583
rradius 70.6412
rwrist -14.4271
rhand -22.4791 22.1405
rfingers 7.12502
rthumb 3.94609 -7.80266
lclavicle 0 2.38542e-015
lhumerus -52.1651 -2.22811 86.7682
lradius 61.8939
lwrist 33.3247
lhand -24.6559 20.7348
lfingers 7.12502
lthumb 1.84388 50.7066
rfemur -88.2606 -2.75493 21.3313
rtibia 77.2358
rfoot -24.4323 -10.643
rtoes -12.2519
lfemur -86.9359 -1.45312 -20.2177
ltibia 74.3291
lfoot -27.9819 6.04525
ltoes -6.37492
249
root 1.24117 14.8875 -15.8693 45.3213 -0.820754 0.611825
lowerback 34.6145 0.760231 0.644249
upperback 3.3619 1.68765 3.19412
thorax -14.05 0.766911 2.41309
lowerneck -26.5102 -4.08834 -8.40264
upperneck -6.59958 -3.11639 5.43117
head 2.15502 -1.16729 2.77064
rclavicle 7.15625e-015 -9.34288e-015
rhumerus -55.0506 -7.89002 -72.2669
rradius 69.0533
rwrist -13.7087
rhand -22.9466 22.0575
rfingers 7.12502
rthumb 3.49471 -7.89356
lclavicle 7.15625e-015 -9.34288e-015
lhumerus -50.2943 -1.7225 86.6847
lradius 61.0039
lwrist 33.3533
lhand -24.424 19.7546
lfingers 7.12502
lthumb 2.06791 49.7243
rfemur -88.6083 -2.82202 21.5515
rtibia 78.5228
rfoot -24.8323 -10.6166
rtoes -14.1313
lfemur -87.2963 -1.27706 -20.1933
ltibia 75.44
lfoot -28.6452 6.1672
ltoes -7.35168
250
root 1.2493 14.8324 -15.7782 45.3676 -0.539587 0.465409
lowerback 34.5206 0.672531 1.0541
upperback 3.25885 1.74265 3.26291
thorax -14.1241 0.770956 2.24508
lowerneck -26.445 -4.11356 -8.39646
upperneck -7.03022 -3.1496 5.45984
head 2.01565 -1.18027 2.7796
rclavicle 2.06736e-014 1.92821e-014
rhumerus -53.0126 -8.69551 -72.3272
rradius 67.4072
rwrist -13.0704
rhand -23.4381 20.1681
rfingers 7.12502
rthumb 3.02004 -9.79031
lclavicle 2.06736e-014 1.92821e-014
lhumerus -48.3465 -1.37821 86.7118
lradius 59.9524
lwrist 33.2905
lhand -24.0825 20.4107
lfingers 7.12502
lthumb 2.39764 50.3769
rfemur -88.9205 -3.03257 21.8988
rtibia 79.6905
rfoot -25.0112 -10.7362
rtoes -15.4414
lfemur -87.4685 -1.24658 -20.055
ltibia 76.3645
lfoot -28.9607 6.52133
ltoes -9.15591
251
root 1.25496 14.7923 -15.6929 45.2431 -0.243331 0.510568
lowerback 34.5107 0.526168 1.42302
upperback 3.24796 1.69885 3.27612
thorax -14.1188 0.732404 2.0795
lowerneck -26.3343 -4.09383 -8.33395
upperneck -7.50131 -3.14198 5.48246
head 1.8552 -1.17436 2.78234
rclavicle -2.38542e-015 -1.31198e-014
rhumerus -50.5696 -9.50443 -72.4815
rradius 65.4025
rwrist -12.5639
rhand -23.5976 22.9307
rfingers 7.12502
rthumb 2.86596 -7.02975
lclavicle -2.38542e-015 -1.31198e-014
lhumerus -46.1585 -1.08411 86.7058
lradius 58.9477
lwrist 33.2073
lhand -23.8667 20.8503
lfingers 7.12502
lthumb 2.60611 50.8141
rfemur -89.0384 -3.36252 22.1107
rtibia 80.8282
rfoot -25.152 -10.9969
rtoes -17.0295
lfemur -87.3675 -1.34396 -20.0403
ltibia 77.1912
lfoot -29.1382 6.9518
ltoes -10.9156
252
root 1.25549 14.7645 -15.6043 44.7155 -0.0721277 0.422003
lowerback 34.904 0.464348 1.71051
upperback 3.31084 1.7317 3.24111
thorax -14.1919 0.727607 1.87141
lowerneck -26.4087 -4.02348 -7.99886
upperneck -7.89677 -3.12894 5.33522
head 1.73308 -1.17814 2.68667
rclavicle -1.66979e-014 -3.26007e-014
rhumerus -47.6675 -10.5733 -72.7639
rradius 62.806
rwrist -12.4032
rhand -23.875 24.2831
rfingers 7.12502
rthumb 2.59811 -5.68086
lclavicle -1.66979e-014 -3.26007e-014
lhumerus -43.5662 -0.931318 86.6302
lradius 57.8766
lwrist 33.0486
lhand -24.147 21.2773
lfingers 7.12502
lthumb 2.33537 51.2443
rfemur -88.5862 -3.47906 22.2769
rtibia 81.86
rfoot -25.2621 -11.0461
rtoes -18.4808
lfemur -86.7355 -1.26062 -19.9514
ltibia 77.9354
lfoot -29.733 6.85361
ltoes -11.2135
253
root 1.27325 14.6677 -15.5251 45.153 -0.357499 0.279139
lowerback 34.1096 0.546399 1.79832
upperback 3.12615 1.81899 3.05985
thorax -14.0766 0.759883 1.594
lowerneck -25.9921 -3.9445 -7.81653
upperneck -8.45514 -3.09951 5.3767
head 1.5072 -1.16765 2.68089
rclavicle 5.56597e-015 -1.39149e-014
rhumerus -44.4706 -11.5563 -73.0985
rradius 59.6565
rwrist -12.8746
rhand -24.2427 24.433
rfingers 7.12502
rthumb 2.24293 -5.53494
lclavicle 5.56597e-015 -1.39149e-014
lhumerus -40.719 -0.724607 86.5284
lradius 56.2654
lwrist 32.6236
lhand -24.8346 20.3274
lfingers 7.12502
lthumb 1.67132 50.3006
rfemur -89.6769 -3.36874 22.2003
rtibia 83.1455
rfoot -25.1144 -10.5389
rtoes -19.8479
lfemur -87.5559 -1.05976 -20.0213
ltibia 79.011
lfoot -30.1256 6.49527
ltoes -10.9325
254
root 1.25948 14.6799 -15.3938 43.8602 -0.146795 0.474024
lowerback 35.0968 0.436851 1.85706
upperback 3.17918 1.72934 3.02058
thorax -14.4064 0.711635 1.55329
lowerneck -25.312 -3.90966 -7.79383
upperneck -9.10755 -3.10121 5.6009
head 1.22924 -1.16569 2.75804
rclavicle 8.74653e-015 4.45278e-014
rhumerus -41.0548 -12.2036 -73.5544
rradius 56.369
rwrist -14.1771
rhand -24.6679 24.7755
rfingers 7.12502
rthumb 1.83232 -5.1964
lclavicle 8.74653e-015 4.45278e-014
lhumerus -37.5889 -0.392649 86.3654
lradius 54.3373
lwrist 32.0425
lhand -25.216 19.8795
lfingers 7.12502
lthumb 1.30299 49.8553
rfemur -87.9491 -3.6381 22.0435
rtibia 84.0329
rfoot -25.6455 -10.3583
rtoes -20.1888
lfemur -85.7345 -1.09075 -20.0807
ltibia 79.5905
lfoot -30.6927 5.93885
ltoes -11.1025
255
root 1.27084 14.6195 -15.3086 43.8159 -0.279152 0.24069
lowerback 34.5783 0.478722 2.0473
upperback 3.13169 1.819 2.91687
thorax -14.2434 0.739623 1.30242
lowerneck -24.8265 -3.82146 -7.68252
upperneck -9.78221 -3.03551 5.73479
head 0.960952 -1.13392 2.79741
rclavicle 1.03368e-014 7.95139e-015
rhumerus -37.6783 -12.5526 -74.1389
rradius 53.7816
rwrist -16.002
rhand -24.8887 25.8887
rfingers 7.12502
rthumb 1.61909 -4.08487
lclavicle 1.03368e-014 7.95139e-015
lhumerus -34.0624 0.062055 86.1969
lradius 52.2703
lwrist 31.2672
lhand -25.3152 21.9664
lfingers 7.12502
lthumb 1.20714 51.9427
rfemur -88.1711 -3.46911 22.0608
rtibia 85.0361
rfoot -25.2592 -10.0192
rtoes -19.7087
lfemur -85.9197 -0.83179 -19.9138
ltibia 80.4756
lfoot -30.7149 5.38682
ltoes -11.1368
256
root 1.25852 14.6062 -15.1986 42.6763 -0.262288 0.414867
lowerback 35.182 0.449725 1.89355
upperback 3.23015 1.73082 2.84499
thorax -14.3706 0.705643 1.34122
lowerneck -24.349 -3.67765 -7.49922
upperneck -10.2681 -2.91436 5.84362
head 0.747212 -1.07905 2.81951
rclavicle -1.51076e-014 -3.61788e-014
rhumerus -34.1592 -12.8038 -74.7087
rradius 52.1817
rwrist -18.47
rhand -23.4877 23.1536
rfingers 7.12502
rthumb 2.97212 -6.80543
lclavicle -1.51076e-014 -3.61788e-014
lhumerus -30.2645 0.50909 86.0166
lradius 49.7693
lwrist 30.5429
lhand -25.808 22.4674
lfingers 7.12502
lthumb 0.731232 52.4459
rfemur -86.8972 -3.54641 21.7979
rtibia 85.8357
rfoot -25.1531 -10.0507
rtoes -19.398
lfemur -84.519 -0.862952 -19.9093
ltibia 81.0617
lfoot -31.0576 4.93286
ltoes -12.8312
